<mxfile host="app.diagrams.net" agent="Mozilla/5.0 (Macintosh; Intel Mac OS X 10_15_7) AppleWebKit/537.36 (KHTML, like Gecko) Chrome/139.0.0.0 Safari/537.36" version="28.2.0">
  <diagram name="Страница — 1" id="Vv1dbB3zxPd_jkj-rxeU">
    <mxGraphModel dx="1437" dy="1535" grid="1" gridSize="10" guides="1" tooltips="1" connect="1" arrows="1" fold="1" page="1" pageScale="1" pageWidth="827" pageHeight="1169" math="0" shadow="0">
      <root>
        <mxCell id="0" />
        <mxCell id="1" parent="0" />
        <mxCell id="XUz6GpSt27TJzOOIdMyK-28" style="rounded=0;orthogonalLoop=1;jettySize=auto;html=1;exitX=0.25;exitY=1;exitDx=0;exitDy=0;entryX=0.5;entryY=0;entryDx=0;entryDy=0;endArrow=none;endFill=0;" edge="1" parent="1" source="XUz6GpSt27TJzOOIdMyK-1" target="XUz6GpSt27TJzOOIdMyK-11">
          <mxGeometry relative="1" as="geometry" />
        </mxCell>
        <mxCell id="XUz6GpSt27TJzOOIdMyK-29" style="rounded=0;orthogonalLoop=1;jettySize=auto;html=1;exitX=0.5;exitY=1;exitDx=0;exitDy=0;entryX=0.5;entryY=0;entryDx=0;entryDy=0;endArrow=none;endFill=0;" edge="1" parent="1" source="XUz6GpSt27TJzOOIdMyK-1" target="XUz6GpSt27TJzOOIdMyK-12">
          <mxGeometry relative="1" as="geometry" />
        </mxCell>
        <mxCell id="XUz6GpSt27TJzOOIdMyK-30" style="rounded=0;orthogonalLoop=1;jettySize=auto;html=1;exitX=0.75;exitY=1;exitDx=0;exitDy=0;entryX=0.25;entryY=0;entryDx=0;entryDy=0;endArrow=none;endFill=0;" edge="1" parent="1" source="XUz6GpSt27TJzOOIdMyK-1" target="XUz6GpSt27TJzOOIdMyK-13">
          <mxGeometry relative="1" as="geometry" />
        </mxCell>
        <mxCell id="XUz6GpSt27TJzOOIdMyK-1" value="публичные данные" style="rounded=1;whiteSpace=wrap;html=1;" vertex="1" parent="1">
          <mxGeometry x="-84" y="150" width="120" height="60" as="geometry" />
        </mxCell>
        <mxCell id="XUz6GpSt27TJzOOIdMyK-6" style="rounded=0;orthogonalLoop=1;jettySize=auto;html=1;exitX=0;exitY=1;exitDx=0;exitDy=0;endArrow=none;endFill=0;" edge="1" parent="1" source="XUz6GpSt27TJzOOIdMyK-2" target="XUz6GpSt27TJzOOIdMyK-1">
          <mxGeometry relative="1" as="geometry" />
        </mxCell>
        <mxCell id="XUz6GpSt27TJzOOIdMyK-8" style="rounded=0;orthogonalLoop=1;jettySize=auto;html=1;exitX=0.25;exitY=1;exitDx=0;exitDy=0;entryX=0.75;entryY=0;entryDx=0;entryDy=0;endArrow=none;endFill=0;" edge="1" parent="1" source="XUz6GpSt27TJzOOIdMyK-2" target="XUz6GpSt27TJzOOIdMyK-3">
          <mxGeometry relative="1" as="geometry" />
        </mxCell>
        <mxCell id="XUz6GpSt27TJzOOIdMyK-9" style="rounded=0;orthogonalLoop=1;jettySize=auto;html=1;exitX=0.75;exitY=1;exitDx=0;exitDy=0;endArrow=none;endFill=0;" edge="1" parent="1" source="XUz6GpSt27TJzOOIdMyK-2" target="XUz6GpSt27TJzOOIdMyK-4">
          <mxGeometry relative="1" as="geometry" />
        </mxCell>
        <mxCell id="XUz6GpSt27TJzOOIdMyK-10" style="rounded=0;orthogonalLoop=1;jettySize=auto;html=1;exitX=1;exitY=1;exitDx=0;exitDy=0;entryX=0.25;entryY=0;entryDx=0;entryDy=0;endArrow=none;endFill=0;" edge="1" parent="1" source="XUz6GpSt27TJzOOIdMyK-2" target="XUz6GpSt27TJzOOIdMyK-5">
          <mxGeometry relative="1" as="geometry" />
        </mxCell>
        <mxCell id="XUz6GpSt27TJzOOIdMyK-2" value="Безопасность данных" style="rounded=1;whiteSpace=wrap;html=1;" vertex="1" parent="1">
          <mxGeometry x="1181" y="-20" width="120" height="60" as="geometry" />
        </mxCell>
        <mxCell id="XUz6GpSt27TJzOOIdMyK-32" style="rounded=0;orthogonalLoop=1;jettySize=auto;html=1;exitX=0.25;exitY=1;exitDx=0;exitDy=0;endArrow=none;endFill=0;" edge="1" parent="1" source="XUz6GpSt27TJzOOIdMyK-3" target="XUz6GpSt27TJzOOIdMyK-14">
          <mxGeometry relative="1" as="geometry" />
        </mxCell>
        <mxCell id="XUz6GpSt27TJzOOIdMyK-33" style="rounded=0;orthogonalLoop=1;jettySize=auto;html=1;exitX=0.75;exitY=1;exitDx=0;exitDy=0;endArrow=none;endFill=0;" edge="1" parent="1" source="XUz6GpSt27TJzOOIdMyK-3" target="XUz6GpSt27TJzOOIdMyK-15">
          <mxGeometry relative="1" as="geometry" />
        </mxCell>
        <mxCell id="XUz6GpSt27TJzOOIdMyK-3" value="внутренние данные" style="rounded=1;whiteSpace=wrap;html=1;" vertex="1" parent="1">
          <mxGeometry x="460" y="150" width="120" height="60" as="geometry" />
        </mxCell>
        <mxCell id="XUz6GpSt27TJzOOIdMyK-34" style="rounded=0;orthogonalLoop=1;jettySize=auto;html=1;exitX=0.5;exitY=1;exitDx=0;exitDy=0;entryX=0.5;entryY=0;entryDx=0;entryDy=0;endArrow=none;endFill=0;" edge="1" parent="1" source="XUz6GpSt27TJzOOIdMyK-4" target="XUz6GpSt27TJzOOIdMyK-16">
          <mxGeometry relative="1" as="geometry" />
        </mxCell>
        <mxCell id="XUz6GpSt27TJzOOIdMyK-35" style="rounded=0;orthogonalLoop=1;jettySize=auto;html=1;exitX=0.5;exitY=1;exitDx=0;exitDy=0;entryX=0.5;entryY=0;entryDx=0;entryDy=0;endArrow=none;endFill=0;" edge="1" parent="1" source="XUz6GpSt27TJzOOIdMyK-4" target="XUz6GpSt27TJzOOIdMyK-17">
          <mxGeometry relative="1" as="geometry" />
        </mxCell>
        <mxCell id="XUz6GpSt27TJzOOIdMyK-36" style="rounded=0;orthogonalLoop=1;jettySize=auto;html=1;exitX=0.5;exitY=1;exitDx=0;exitDy=0;entryX=0.5;entryY=0;entryDx=0;entryDy=0;endArrow=none;endFill=0;" edge="1" parent="1" source="XUz6GpSt27TJzOOIdMyK-4" target="XUz6GpSt27TJzOOIdMyK-18">
          <mxGeometry relative="1" as="geometry" />
        </mxCell>
        <mxCell id="XUz6GpSt27TJzOOIdMyK-37" style="rounded=0;orthogonalLoop=1;jettySize=auto;html=1;exitX=0.5;exitY=1;exitDx=0;exitDy=0;endArrow=none;endFill=0;" edge="1" parent="1" source="XUz6GpSt27TJzOOIdMyK-4" target="XUz6GpSt27TJzOOIdMyK-19">
          <mxGeometry relative="1" as="geometry" />
        </mxCell>
        <mxCell id="XUz6GpSt27TJzOOIdMyK-38" style="rounded=0;orthogonalLoop=1;jettySize=auto;html=1;exitX=0.5;exitY=1;exitDx=0;exitDy=0;entryX=0.5;entryY=0;entryDx=0;entryDy=0;endArrow=none;endFill=0;" edge="1" parent="1" source="XUz6GpSt27TJzOOIdMyK-4" target="XUz6GpSt27TJzOOIdMyK-20">
          <mxGeometry relative="1" as="geometry" />
        </mxCell>
        <mxCell id="XUz6GpSt27TJzOOIdMyK-39" style="rounded=0;orthogonalLoop=1;jettySize=auto;html=1;exitX=0.5;exitY=1;exitDx=0;exitDy=0;endArrow=none;endFill=0;" edge="1" parent="1" source="XUz6GpSt27TJzOOIdMyK-4" target="XUz6GpSt27TJzOOIdMyK-21">
          <mxGeometry relative="1" as="geometry" />
        </mxCell>
        <mxCell id="XUz6GpSt27TJzOOIdMyK-40" style="rounded=0;orthogonalLoop=1;jettySize=auto;html=1;exitX=0.5;exitY=1;exitDx=0;exitDy=0;endArrow=none;endFill=0;" edge="1" parent="1" source="XUz6GpSt27TJzOOIdMyK-4" target="XUz6GpSt27TJzOOIdMyK-22">
          <mxGeometry relative="1" as="geometry" />
        </mxCell>
        <mxCell id="XUz6GpSt27TJzOOIdMyK-41" style="rounded=0;orthogonalLoop=1;jettySize=auto;html=1;exitX=0.5;exitY=1;exitDx=0;exitDy=0;entryX=0.5;entryY=0;entryDx=0;entryDy=0;endArrow=none;endFill=0;" edge="1" parent="1" source="XUz6GpSt27TJzOOIdMyK-4" target="XUz6GpSt27TJzOOIdMyK-23">
          <mxGeometry relative="1" as="geometry" />
        </mxCell>
        <mxCell id="XUz6GpSt27TJzOOIdMyK-42" style="rounded=0;orthogonalLoop=1;jettySize=auto;html=1;exitX=0.5;exitY=1;exitDx=0;exitDy=0;endArrow=none;endFill=0;" edge="1" parent="1" source="XUz6GpSt27TJzOOIdMyK-4" target="XUz6GpSt27TJzOOIdMyK-24">
          <mxGeometry relative="1" as="geometry" />
        </mxCell>
        <mxCell id="XUz6GpSt27TJzOOIdMyK-4" value="конфиденциальные данные" style="rounded=1;whiteSpace=wrap;html=1;" vertex="1" parent="1">
          <mxGeometry x="1402" y="150" width="120" height="60" as="geometry" />
        </mxCell>
        <mxCell id="XUz6GpSt27TJzOOIdMyK-43" style="rounded=0;orthogonalLoop=1;jettySize=auto;html=1;exitX=0.25;exitY=1;exitDx=0;exitDy=0;endArrow=none;endFill=0;" edge="1" parent="1" source="XUz6GpSt27TJzOOIdMyK-5" target="XUz6GpSt27TJzOOIdMyK-25">
          <mxGeometry relative="1" as="geometry" />
        </mxCell>
        <mxCell id="XUz6GpSt27TJzOOIdMyK-44" style="rounded=0;orthogonalLoop=1;jettySize=auto;html=1;exitX=0.75;exitY=1;exitDx=0;exitDy=0;endArrow=none;endFill=0;" edge="1" parent="1" source="XUz6GpSt27TJzOOIdMyK-5" target="XUz6GpSt27TJzOOIdMyK-26">
          <mxGeometry relative="1" as="geometry" />
        </mxCell>
        <mxCell id="XUz6GpSt27TJzOOIdMyK-5" value="&amp;nbsp;секретные данные" style="rounded=1;whiteSpace=wrap;html=1;" vertex="1" parent="1">
          <mxGeometry x="2264" y="150" width="120" height="60" as="geometry" />
        </mxCell>
        <mxCell id="XUz6GpSt27TJzOOIdMyK-11" value="&lt;font style=&quot;font-size: 10px;&quot;&gt;Информация о компании, размещенная в публичном доступе или на сайте компании&lt;/font&gt;" style="rounded=1;whiteSpace=wrap;html=1;" vertex="1" parent="1">
          <mxGeometry x="-354" y="280" width="120" height="60" as="geometry" />
        </mxCell>
        <mxCell id="XUz6GpSt27TJzOOIdMyK-12" value="информация о доступных квартирах" style="rounded=1;whiteSpace=wrap;html=1;" vertex="1" parent="1">
          <mxGeometry x="-144" y="280" width="120" height="60" as="geometry" />
        </mxCell>
        <mxCell id="XUz6GpSt27TJzOOIdMyK-13" value="Информация от управляющей компании" style="rounded=1;whiteSpace=wrap;html=1;" vertex="1" parent="1">
          <mxGeometry x="56" y="280" width="120" height="60" as="geometry" />
        </mxCell>
        <mxCell id="XUz6GpSt27TJzOOIdMyK-14" value="&lt;font style=&quot;font-size: 8px;&quot;&gt;Информация о доступности объектов недвижимости (для внутреннего использования)&lt;/font&gt;" style="rounded=1;whiteSpace=wrap;html=1;" vertex="1" parent="1">
          <mxGeometry x="320" y="270" width="120" height="60" as="geometry" />
        </mxCell>
        <mxCell id="XUz6GpSt27TJzOOIdMyK-15" value="Информация о ходе внутренних проектов и разработок" style="rounded=1;whiteSpace=wrap;html=1;" vertex="1" parent="1">
          <mxGeometry x="600" y="270" width="120" height="60" as="geometry" />
        </mxCell>
        <mxCell id="XUz6GpSt27TJzOOIdMyK-16" value="&lt;font style=&quot;font-size: 8px;&quot;&gt;персональные данные клиентов и собственников: ФИО, телефон, электронная почта клиентов&lt;/font&gt;" style="rounded=1;whiteSpace=wrap;html=1;" vertex="1" parent="1">
          <mxGeometry x="842" y="280" width="120" height="60" as="geometry" />
        </mxCell>
        <mxCell id="XUz6GpSt27TJzOOIdMyK-17" value="история покупок клиентов, данные о владении недвижимостью" style="rounded=1;whiteSpace=wrap;html=1;" vertex="1" parent="1">
          <mxGeometry x="982" y="280" width="120" height="60" as="geometry" />
        </mxCell>
        <mxCell id="XUz6GpSt27TJzOOIdMyK-18" value="данные об осмотрах недвижимости: контактные данные клиентов." style="rounded=1;whiteSpace=wrap;html=1;" vertex="1" parent="1">
          <mxGeometry x="1122" y="280" width="120" height="60" as="geometry" />
        </mxCell>
        <mxCell id="XUz6GpSt27TJzOOIdMyK-19" value="&lt;font style=&quot;font-size: 8px;&quot;&gt;детали бронирований: контактные данные клиентов, информация о датах, времени и типах объектов&lt;/font&gt;" style="rounded=1;whiteSpace=wrap;html=1;" vertex="1" parent="1">
          <mxGeometry x="1262" y="280" width="120" height="60" as="geometry" />
        </mxCell>
        <mxCell id="XUz6GpSt27TJzOOIdMyK-20" value="данные об онлайн-сделках - документы" style="rounded=1;whiteSpace=wrap;html=1;" vertex="1" parent="1">
          <mxGeometry x="1402" y="280" width="120" height="60" as="geometry" />
        </mxCell>
        <mxCell id="XUz6GpSt27TJzOOIdMyK-21" value="информация об оплате услуг ЖКХ" style="rounded=1;whiteSpace=wrap;html=1;" vertex="1" parent="1">
          <mxGeometry x="1542" y="280" width="120" height="60" as="geometry" />
        </mxCell>
        <mxCell id="XUz6GpSt27TJzOOIdMyK-22" value="&lt;font style=&quot;font-size: 11px;&quot;&gt;данные с &quot;умных домов»: видеозаписи, настройки, детали жизни людей&lt;/font&gt;" style="rounded=1;whiteSpace=wrap;html=1;" vertex="1" parent="1">
          <mxGeometry x="1682" y="280" width="120" height="60" as="geometry" />
        </mxCell>
        <mxCell id="XUz6GpSt27TJzOOIdMyK-23" value="&lt;font style=&quot;font-size: 8px;&quot;&gt;персональные данные, передаваемые через API партнеров и используемые в разных управляющих компаниях&lt;/font&gt;" style="rounded=1;whiteSpace=wrap;html=1;" vertex="1" parent="1">
          <mxGeometry x="1822" y="280" width="120" height="60" as="geometry" />
        </mxCell>
        <mxCell id="XUz6GpSt27TJzOOIdMyK-24" value="&lt;font style=&quot;font-size: 8px;&quot;&gt;Информация о домах и жилищных комплексах (номера квартир), передаваемые через API партнеров&lt;/font&gt;" style="rounded=1;whiteSpace=wrap;html=1;" vertex="1" parent="1">
          <mxGeometry x="1962" y="280" width="120" height="60" as="geometry" />
        </mxCell>
        <mxCell id="XUz6GpSt27TJzOOIdMyK-25" value="Паспортные данные клиентов (при онлайн-сделках)" style="rounded=1;whiteSpace=wrap;html=1;" vertex="1" parent="1">
          <mxGeometry x="2194" y="280" width="120" height="60" as="geometry" />
        </mxCell>
        <mxCell id="XUz6GpSt27TJzOOIdMyK-26" value="Данные кредитных карт" style="rounded=1;whiteSpace=wrap;html=1;" vertex="1" parent="1">
          <mxGeometry x="2424" y="280" width="120" height="60" as="geometry" />
        </mxCell>
        <mxCell id="XUz6GpSt27TJzOOIdMyK-49" style="edgeStyle=orthogonalEdgeStyle;rounded=0;orthogonalLoop=1;jettySize=auto;html=1;exitX=0.5;exitY=1;exitDx=0;exitDy=0;endArrow=none;endFill=0;" edge="1" parent="1" source="XUz6GpSt27TJzOOIdMyK-45" target="XUz6GpSt27TJzOOIdMyK-48">
          <mxGeometry relative="1" as="geometry" />
        </mxCell>
        <mxCell id="XUz6GpSt27TJzOOIdMyK-45" value="&lt;div&gt;Риск: Искажение данных&lt;/div&gt;&lt;div&gt;Оценка: Значительный&lt;/div&gt;" style="rounded=1;whiteSpace=wrap;html=1;align=left;" vertex="1" parent="1">
          <mxGeometry x="-322" y="400" width="120" height="60" as="geometry" />
        </mxCell>
        <mxCell id="XUz6GpSt27TJzOOIdMyK-48" value="&lt;span&gt;Некорректная или устаревшая информация об объектах недвижимости (например, неверное описание) может ввести в заблуждение потенциальных покупателей, нанести ущерб репутации компании и привести к потере клиентов. Например, клиент приедет смотреть квартиру, а там все не так, как на сайте.&lt;/span&gt;" style="rounded=0;whiteSpace=wrap;html=1;align=left;fontSize=10;" vertex="1" parent="1">
          <mxGeometry x="-323" y="510" width="120.5" height="200" as="geometry" />
        </mxCell>
        <mxCell id="XUz6GpSt27TJzOOIdMyK-52" style="edgeStyle=orthogonalEdgeStyle;rounded=0;orthogonalLoop=1;jettySize=auto;html=1;exitX=0.5;exitY=1;exitDx=0;exitDy=0;endArrow=none;endFill=0;" edge="1" parent="1" source="XUz6GpSt27TJzOOIdMyK-50" target="XUz6GpSt27TJzOOIdMyK-51">
          <mxGeometry relative="1" as="geometry" />
        </mxCell>
        <mxCell id="XUz6GpSt27TJzOOIdMyK-50" value="&lt;div&gt;&lt;font style=&quot;font-size: 11px;&quot;&gt;Риск: Обесценивание данных&lt;/font&gt;&lt;/div&gt;&lt;div&gt;&lt;font style=&quot;font-size: 11px;&quot;&gt;Оценка: Незначительный&lt;/font&gt;&lt;/div&gt;" style="rounded=1;whiteSpace=wrap;html=1;align=left;" vertex="1" parent="1">
          <mxGeometry x="-183" y="400" width="120" height="60" as="geometry" />
        </mxCell>
        <mxCell id="XUz6GpSt27TJzOOIdMyK-51" value="Устаревшая информация (например, о сданных объектах) просто перестает быть полезной для клиентов, но не наносит прямого ущерба компании. Это скорее вопрос поддержания актуальности информации." style="rounded=0;whiteSpace=wrap;html=1;align=left;fontSize=10;" vertex="1" parent="1">
          <mxGeometry x="-184.5" y="510" width="122.5" height="150" as="geometry" />
        </mxCell>
        <mxCell id="XUz6GpSt27TJzOOIdMyK-54" style="edgeStyle=orthogonalEdgeStyle;rounded=0;orthogonalLoop=1;jettySize=auto;html=1;exitX=0.5;exitY=1;exitDx=0;exitDy=0;endArrow=none;endFill=0;" edge="1" parent="1" source="XUz6GpSt27TJzOOIdMyK-55" target="XUz6GpSt27TJzOOIdMyK-56">
          <mxGeometry relative="1" as="geometry" />
        </mxCell>
        <mxCell id="XUz6GpSt27TJzOOIdMyK-55" value="Некачественные данные&lt;div&gt;Оценка: Значительный&lt;/div&gt;" style="rounded=1;whiteSpace=wrap;html=1;align=left;" vertex="1" parent="1">
          <mxGeometry x="-43.5" y="400" width="120" height="60" as="geometry" />
        </mxCell>
        <mxCell id="XUz6GpSt27TJzOOIdMyK-56" value="Неполные или плохо структурированные данные (например, некачественные фотографии, нечитаемое описание) снижают привлекательность объектов недвижимости для потенциальных покупателей." style="rounded=0;whiteSpace=wrap;html=1;align=left;fontSize=10;" vertex="1" parent="1">
          <mxGeometry x="-36.5" y="510" width="107" height="170" as="geometry" />
        </mxCell>
        <mxCell id="XUz6GpSt27TJzOOIdMyK-68" style="edgeStyle=orthogonalEdgeStyle;rounded=0;orthogonalLoop=1;jettySize=auto;html=1;exitX=0.5;exitY=1;exitDx=0;exitDy=0;endArrow=none;endFill=0;" edge="1" parent="1" source="XUz6GpSt27TJzOOIdMyK-69" target="XUz6GpSt27TJzOOIdMyK-70">
          <mxGeometry relative="1" as="geometry" />
        </mxCell>
        <mxCell id="XUz6GpSt27TJzOOIdMyK-69" value="Риск: Утечка данных&lt;div&gt;Оценка: Значительный&lt;/div&gt;" style="rounded=1;whiteSpace=wrap;html=1;align=left;" vertex="1" parent="1">
          <mxGeometry x="327" y="390" width="120" height="60" as="geometry" />
        </mxCell>
        <mxCell id="XUz6GpSt27TJzOOIdMyK-70" value="Раскрытие информации о планах компании (например, о новых проектах, ценовой политике, стратегиях продаж) может дать конкурентное преимущество конкурентам, позволяя им адаптировать свои стратегии и перехватывать клиентов." style="rounded=0;whiteSpace=wrap;html=1;align=left;fontSize=10;" vertex="1" parent="1">
          <mxGeometry x="326" y="500" width="120.5" height="170" as="geometry" />
        </mxCell>
        <mxCell id="XUz6GpSt27TJzOOIdMyK-71" style="edgeStyle=orthogonalEdgeStyle;rounded=0;orthogonalLoop=1;jettySize=auto;html=1;exitX=0.5;exitY=1;exitDx=0;exitDy=0;endArrow=none;endFill=0;" edge="1" parent="1" source="XUz6GpSt27TJzOOIdMyK-72" target="XUz6GpSt27TJzOOIdMyK-73">
          <mxGeometry relative="1" as="geometry" />
        </mxCell>
        <mxCell id="XUz6GpSt27TJzOOIdMyK-72" value="Риск: Потеря данных&lt;div&gt;Оценка: Значительный&lt;/div&gt;" style="rounded=1;whiteSpace=wrap;html=1;align=left;" vertex="1" parent="1">
          <mxGeometry x="466" y="390" width="120" height="60" as="geometry" />
        </mxCell>
        <mxCell id="XUz6GpSt27TJzOOIdMyK-73" value="Потеря информации о доступности объектов недвижимости может привести к упущенным сделкам и снижению эффективности работы." style="rounded=0;whiteSpace=wrap;html=1;align=left;fontSize=10;" vertex="1" parent="1">
          <mxGeometry x="464.5" y="500" width="122.5" height="90" as="geometry" />
        </mxCell>
        <mxCell id="XUz6GpSt27TJzOOIdMyK-74" style="edgeStyle=orthogonalEdgeStyle;rounded=0;orthogonalLoop=1;jettySize=auto;html=1;exitX=0.5;exitY=1;exitDx=0;exitDy=0;endArrow=none;endFill=0;" edge="1" parent="1" source="XUz6GpSt27TJzOOIdMyK-75" target="XUz6GpSt27TJzOOIdMyK-76">
          <mxGeometry relative="1" as="geometry" />
        </mxCell>
        <mxCell id="XUz6GpSt27TJzOOIdMyK-75" value="Риск: Искажение данных&lt;div&gt;Оценка: Незначительный&lt;/div&gt;" style="rounded=1;whiteSpace=wrap;html=1;align=left;" vertex="1" parent="1">
          <mxGeometry x="605.5" y="390" width="120" height="60" as="geometry" />
        </mxCell>
        <mxCell id="XUz6GpSt27TJzOOIdMyK-76" value="&lt;div&gt;Искажение данных, касающихся доступности объектов недвижимости, может привести к временным затруднениям в продажах, но не приведет к серьезным последствиям.&lt;/div&gt;&lt;div&gt;&lt;br&gt;&lt;/div&gt;" style="rounded=0;whiteSpace=wrap;html=1;align=left;fontSize=10;" vertex="1" parent="1">
          <mxGeometry x="612.5" y="500" width="107" height="170" as="geometry" />
        </mxCell>
        <mxCell id="XUz6GpSt27TJzOOIdMyK-77" style="edgeStyle=orthogonalEdgeStyle;rounded=0;orthogonalLoop=1;jettySize=auto;html=1;exitX=0.5;exitY=1;exitDx=0;exitDy=0;endArrow=none;endFill=0;" edge="1" parent="1" source="XUz6GpSt27TJzOOIdMyK-78" target="XUz6GpSt27TJzOOIdMyK-79">
          <mxGeometry relative="1" as="geometry" />
        </mxCell>
        <mxCell id="XUz6GpSt27TJzOOIdMyK-78" value="Риск: Утечка данных&lt;div&gt;Оценка: Критический&lt;/div&gt;" style="rounded=1;whiteSpace=wrap;html=1;align=left;" vertex="1" parent="1">
          <mxGeometry x="1143.5" y="390" width="120" height="60" as="geometry" />
        </mxCell>
        <mxCell id="XUz6GpSt27TJzOOIdMyK-79" value="Раскрытие персональных данных клиентов и собственников (ФИО, контакты, история покупок, данные об оплате ЖКХ, данные с &quot;умных домов&quot;) может привести к серьезным юридическим последствиям, репутационному ущербу, потере доверия клиентов и судебным искам. Также утечка данных может привести к краже личных данных и мошенническим действиям в отношении клиентов." style="rounded=0;whiteSpace=wrap;html=1;align=left;fontSize=10;" vertex="1" parent="1">
          <mxGeometry x="1142.5" y="500" width="120.5" height="260" as="geometry" />
        </mxCell>
        <mxCell id="XUz6GpSt27TJzOOIdMyK-80" style="edgeStyle=orthogonalEdgeStyle;rounded=0;orthogonalLoop=1;jettySize=auto;html=1;exitX=0.5;exitY=1;exitDx=0;exitDy=0;endArrow=none;endFill=0;" edge="1" parent="1" source="XUz6GpSt27TJzOOIdMyK-81" target="XUz6GpSt27TJzOOIdMyK-82">
          <mxGeometry relative="1" as="geometry" />
        </mxCell>
        <mxCell id="XUz6GpSt27TJzOOIdMyK-81" value="Риск: Искажение данных&lt;div&gt;Оценка: Критический&lt;/div&gt;" style="rounded=1;whiteSpace=wrap;html=1;align=left;" vertex="1" parent="1">
          <mxGeometry x="1282.5" y="390" width="120" height="60" as="geometry" />
        </mxCell>
        <mxCell id="XUz6GpSt27TJzOOIdMyK-82" value="Неправильные данные о клиентах (например, неверные контактные данные, ошибки в истории покупок) могут привести к ошибкам в обслуживании, недовольству клиентов и потере лояльности.&lt;div&gt;Возможность изменения данных клиентов другой управляющей компании может привести к серьезным юридическим последствиям, репутационному ущербу и потере доверия клиентов.&lt;/div&gt;" style="rounded=0;whiteSpace=wrap;html=1;align=left;fontSize=10;" vertex="1" parent="1">
          <mxGeometry x="1281" y="500" width="122.5" height="230" as="geometry" />
        </mxCell>
        <mxCell id="XUz6GpSt27TJzOOIdMyK-83" style="edgeStyle=orthogonalEdgeStyle;rounded=0;orthogonalLoop=1;jettySize=auto;html=1;exitX=0.5;exitY=1;exitDx=0;exitDy=0;endArrow=none;endFill=0;" edge="1" parent="1" source="XUz6GpSt27TJzOOIdMyK-84" target="XUz6GpSt27TJzOOIdMyK-85">
          <mxGeometry relative="1" as="geometry" />
        </mxCell>
        <mxCell id="XUz6GpSt27TJzOOIdMyK-84" value="&lt;font style=&quot;font-size: 10px;&quot;&gt;Риск: Некачественные данные&lt;/font&gt;&lt;div&gt;&lt;font style=&quot;font-size: 10px;&quot;&gt;Оценка: Значительный&lt;/font&gt;&lt;/div&gt;" style="rounded=1;whiteSpace=wrap;html=1;align=left;" vertex="1" parent="1">
          <mxGeometry x="1422" y="390" width="120" height="60" as="geometry" />
        </mxCell>
        <mxCell id="XUz6GpSt27TJzOOIdMyK-85" value="Неполные данные о клиентах затрудняют эффективное взаимодействие с ними, снижают качество обслуживания и могут привести к упущенным возможностям продаж." style="rounded=0;whiteSpace=wrap;html=1;align=left;fontSize=10;" vertex="1" parent="1">
          <mxGeometry x="1429" y="500" width="107" height="150" as="geometry" />
        </mxCell>
        <mxCell id="XUz6GpSt27TJzOOIdMyK-95" style="edgeStyle=orthogonalEdgeStyle;rounded=0;orthogonalLoop=1;jettySize=auto;html=1;exitX=0.5;exitY=1;exitDx=0;exitDy=0;endArrow=none;endFill=0;" edge="1" parent="1" source="XUz6GpSt27TJzOOIdMyK-96" target="XUz6GpSt27TJzOOIdMyK-97">
          <mxGeometry relative="1" as="geometry" />
        </mxCell>
        <mxCell id="XUz6GpSt27TJzOOIdMyK-96" value="Риск: Утечка данных&lt;div&gt;Оценка: Критический&lt;/div&gt;" style="rounded=1;whiteSpace=wrap;html=1;align=left;" vertex="1" parent="1">
          <mxGeometry x="2225" y="390" width="120" height="60" as="geometry" />
        </mxCell>
        <mxCell id="XUz6GpSt27TJzOOIdMyK-97" value="Раскрытие паспортных данных клиентов может привести к краже личных данных, мошенническим действиям и серьезным финансовым потерям для клиентов. Это также приведет к серьезным юридическим последствиям и репутационному ущербу для компании." style="rounded=0;whiteSpace=wrap;html=1;align=left;fontSize=10;" vertex="1" parent="1">
          <mxGeometry x="2224" y="500" width="120.5" height="170" as="geometry" />
        </mxCell>
        <mxCell id="XUz6GpSt27TJzOOIdMyK-98" style="edgeStyle=orthogonalEdgeStyle;rounded=0;orthogonalLoop=1;jettySize=auto;html=1;exitX=0.5;exitY=1;exitDx=0;exitDy=0;endArrow=none;endFill=0;" edge="1" parent="1" source="XUz6GpSt27TJzOOIdMyK-99" target="XUz6GpSt27TJzOOIdMyK-100">
          <mxGeometry relative="1" as="geometry" />
        </mxCell>
        <mxCell id="XUz6GpSt27TJzOOIdMyK-99" value="Риск: Потеря данных&lt;div&gt;Оценка: Критический&lt;/div&gt;" style="rounded=1;whiteSpace=wrap;html=1;align=left;" vertex="1" parent="1">
          <mxGeometry x="2364" y="390" width="120" height="60" as="geometry" />
        </mxCell>
        <mxCell id="XUz6GpSt27TJzOOIdMyK-100" value="Потеря доступа к паспортным данным клиентов может сделать невозможным завершение онлайн-сделок и привести к серьезным финансовым потерям для компании." style="rounded=0;whiteSpace=wrap;html=1;align=left;fontSize=10;" vertex="1" parent="1">
          <mxGeometry x="2362.5" y="500" width="122.5" height="120" as="geometry" />
        </mxCell>
      </root>
    </mxGraphModel>
  </diagram>
</mxfile>
